<svg width="42" height="42" viewBox="0 0 42 42" fill="none" xmlns="http://www.w3.org/2000/svg">
<rect width="42" height="42" rx="2" fill="#1A1A1A"/>
<path d="M31.412 25.964C31.412 22.472 29.792 20.24 25.76 19.16L19.064 17.36C18.056 17.108 17.444 16.496 17.444 15.308C17.444 13.508 18.812 12.752 20.972 12.752C23.564 12.752 24.5 14.156 24.5 15.848V16.28H30.224V15.668C30.224 11.06 26.624 8 20.972 8C14.996 8 11.432 10.88 11.432 15.884C11.432 19.988 13.448 21.716 17.372 22.688L23.672 24.272C24.932 24.596 25.4 25.388 25.4 26.504C25.4 28.448 23.708 29.492 21.152 29.492C18.308 29.492 16.94 28.196 16.94 26.072V25.568H11V26.252C11 31.328 15.068 34.208 21.116 34.208C26.948 34.208 31.412 31.004 31.412 25.964Z" fill="white"/>
</svg>
